PathFileType	4	(X/Y/Z)	Patient4_TMGait_0pt4_01_left_23.trc.trc
DataRate	CameraRate	NumFrames	NumMarkers	Units	OrigDataRate	OrigDataStartFrame	OrigNumFrames
78.212290502793	78.212290502793	4	33	mm	78.212290502793	53	       141
Frame#	Time	Sacral			L.Shoulder			Chest			R.Shoulder			Neck			R.ASIS			L.ASIS			R.Thigh.Superior			R.Thigh.Lateral			R.Thigh.Inferior			R.Patella			L.Thigh.Superior			L.Thigh.Lateral			L.Thigh.Inferior			L.Patella			L.Shank.Superior			L.Shank.Lateral			L.Shank.Inferior			R.Shank.Superior			R.Shank.Lateral			R.Shank.Inferior			R.Heel			R.Midfoot.Superior			R.Midfoot.Lateral			R.Toe			L.Heel			L.Midfoot.Lateral			L.Midfoot.Superior			L.Toe			L.Elbow			L.Wrist			R.Elbow			R.Wrist			
		X1	Y1	Z1	X2	Y2	Z2	X3	Y3	Z3	X4	Y4	Z4	X5	Y5	Z5	X6	Y6	Z6	X7	Y7	Z7	X8	Y8	Z8	X9	Y9	Z9	X10	Y10	Z10	X11	Y11	Z11	X12	Y12	Z12	X13	Y13	Z13	X14	Y14	Z14	X15	Y15	Z15	X16	Y16	Z16	X17	Y17	Z17	X18	Y18	Z18	X19	Y19	Z19	X20	Y20	Z20	X21	Y21	Z21	X22	Y22	Z22	X23	Y23	Z23	X24	Y24	Z24	X25	Y25	Z25	X26	Y26	Z26	X27	Y27	Z27	X28	Y28	Z28	X29	Y29	Z29	X30	Y30	Z30	X31	Y31	Z31	X32	Y32	Z32	X33	Y33	Z33	

53	28.324857142857	747.505983146347	1002.305525420967	408.450099526127	936.848398478949	1426.647586921417	209.108908560616	1030.880292968960	1365.275179690835	375.397859653370	940.650089414762	1451.709301749469	542.396094660648	931.838163779912	1496.586949159064	359.859934282013	972.319544057143	955.175294020173	537.471404722176	972.864965942095	965.134204139678	263.344246854409	1069.627830589969	791.792286605701	512.135749541457	1040.951058244469	671.740522840196	590.621795126468	1134.107805468321	638.022436843614	512.653094052879	1162.523209247456	527.976289232679	540.498688822899	1029.249547367407	754.153563878070	300.137568452355	948.999085670311	635.037295358866	237.804033060986	1030.440444239055	561.412569088232	308.698315273271	1031.445952499622	492.057667437582	319.490128226268	1004.832677562517	418.460136190949	309.519024383098	918.121311449523	303.751335730627	256.201650173623	965.507478400096	193.261295617638	330.071833614063	1091.583573460893	447.209750405467	549.006945481678	971.779412743936	400.222614718482	607.167419817744	967.635357160515	288.604854560150	563.245396411465	775.417299207016	221.128079436416	530.086129329475	940.123431390109	159.601507474234	581.824048293915	829.021295502957	162.249208589404	608.056806447907	999.205521590257	44.381449838504	613.741540911667	834.483602998983	38.090646388640	368.954622657118	908.553233407967	35.169142449328	288.325085619737	991.951583183136	96.683430833383	316.419758250998	1120.411946322163	44.651321957961	287.122779930938	917.269162564363	1076.413171454070	92.339000278372	1075.697325879799	867.279592129326	95.139615351642	886.128774280748	1112.876347692006	676.993414382925	930.299464426105	859.723575021823	721.518618417793	
54	28.337642857143	748.078023477084	1003.226888975963	406.799485195754	940.440602874128	1427.708660998099	208.976697594628	1032.694492791716	1365.793854807771	375.858133158843	941.190294821514	1452.230603392681	542.296783464124	934.224937457986	1497.340989891032	359.764774710074	972.264791890475	956.457365952983	536.988738157791	973.906841521276	965.651488838672	262.922527842143	1070.892733811419	794.811379326669	510.993832163665	1043.657784672146	674.397681124002	589.914922012689	1136.664285016174	641.438210058316	511.691528135538	1166.822438853091	532.904303154194	539.627627890470	1028.181860942389	753.544654356741	299.876476644618	946.659617571066	635.268508635918	237.167804916919	1026.922475084618	560.755929217711	308.421308690602	1027.179440419581	491.571330463953	319.188651121408	1000.451186646315	418.292876941651	309.160833083507	913.513180901680	303.740542971184	255.914119040780	960.510210967456	193.159348320565	329.934004106349	1099.453521148608	449.963847396508	548.698585959755	982.860961569370	397.274147573847	608.174408960006	983.651865781867	285.547523978096	564.268949582224	794.502722229251	208.010178064883	533.340408543708	963.096468564819	156.077795796999	583.552136073387	852.231976066230	152.562950967538	610.957863473912	1028.738607641958	44.433487744255	614.830672185261	829.320097188175	38.117564535488	368.963861922579	903.415364737506	35.182355557057	288.325663400039	986.877828241994	96.654942626036	316.375295895372	1115.317226702599	44.421087076041	287.095909133845	922.338950495014	1078.149330842435	90.403689269470	1085.360342283694	872.722879370206	95.381702830380	879.195343056827	1115.543788000939	677.804691389994	914.117581861057	862.008801370435	727.132735159040	
55	28.350428571429	748.634785187200	1004.143468314651	405.284226091431	944.096486788101	1428.617085420164	208.940871042453	1034.569927081288	1366.199896310877	376.452099472511	941.859543535824	1452.702666606713	542.259434418879	936.674204074854	1497.985243723527	359.735046032153	972.243707799899	957.583376754300	536.591020000675	974.904193228988	966.091801412471	262.561046224827	1071.808527307891	797.238158111644	510.115493687955	1045.387876666235	676.419726717999	589.384015089393	1138.250246939074	643.956556898907	511.056293751276	1169.820102784843	537.189670435046	538.919773316192	1027.049183694224	752.927036131940	299.746166050821	944.306166115877	635.470252308298	236.575319007429	1023.387068374887	560.103727212755	308.168651929035	1022.894868512883	491.082620662073	318.893270240494	996.070240336094	418.120461409134	308.818786738936	908.906442126979	303.724528885392	255.642698562399	955.495199276942	193.049105619154	329.805741160967	1106.451362130391	452.225402061695	548.497104716863	993.804842078824	393.489132352050	609.437241459673	1000.041767019713	281.946649321546	565.420421459018	815.044763116582	193.703827729972	536.849226499838	987.094285321681	152.183288312041	585.259111188640	876.953039842640	142.175234592788	613.997601666822	1059.498581707698	44.797122920891	615.833222420510	824.167045144392	38.145569419732	368.976204571606	898.279757378242	35.194510433442	288.329484762412	981.808398812621	96.628435741528	316.329737695930	1110.224813784138	44.189241658235	287.068899913776	927.188426283560	1079.748435913302	88.639534542471	1094.495958424473	877.980521617036	95.862778104925	872.296731772836	1118.510105629891	678.952545711145	899.154718814250	864.966507467755	731.984567341796	
56	28.363214285714	749.200504552491	1005.032762623382	403.913095141313	947.780207425127	1429.364186199484	209.002886762194	1036.499376001124	1366.476701958495	377.159317452685	942.658471003963	1453.098647873774	542.284449671857	939.173149115280	1498.506463361000	359.776515981790	972.275691695661	958.527097409836	536.295880848722	975.884723943881	966.442001178495	262.261527044554	1072.346744142499	798.972474232826	509.526069650709	1046.079046118103	677.740782580727	589.047150742831	1138.793506347967	645.491573339284	510.743011730870	1171.466881491029	540.747926301379	538.347269226582	1025.899214921048	752.298064372657	299.730915966713	941.975587202866	635.629089092839	236.037365143106	1019.890027913933	559.447953814396	307.930861756931	1018.651400574448	490.580367500362	318.604413839256	991.741594673231	417.928073259465	308.497468149479	904.338642996855	303.701015402023	255.388833223788	950.487898776736	192.923761602055	329.688145243824	1112.498966920198	454.003274865389	548.391385371534	1004.585673430046	389.013258620455	610.952181237660	1016.710772474176	278.022257329521	566.673079038822	837.071582802276	178.582803388116	540.572459702042	1011.971382783362	148.219355638094	586.873265999349	903.127707964358	131.441224102452	617.099245773310	1091.232012842174	45.831958264676	616.626461474228	819.027109507229	38.174365130778	368.989085564897	893.146970061273	35.205410428241	288.335813005569	976.742893971020	96.602151925854	316.285431605214	1105.135225751452	43.953882763978	287.042837338940	931.828406686564	1081.185994587612	87.060209533782	1103.093019967603	882.985056680740	96.561865586149	865.475504601959	1121.706360199827	680.356100851485	885.396650982394	868.356929956367	736.126086875562	
